<svg width="15px" height="15px" viewBox="0 0 15 15" version="1.1" xmlns="http://www.w3.org/2000/svg" xmlns:xlink="http://www.w3.org/1999/xlink">
  <g id="Dashbaord-Block-Ban" fill-rule="nonzero" fill="#000000">
    <path d="M7.50809061,0 C3.36569579,0 0,3.36569579 0,7.49190939 C0,11.618123 3.36569579,14.9838188 7.50809061,14.9838188 C11.6343042,14.9838188 15,11.618123 15,7.49190939 C15,3.36569579 11.6343042,0 7.50809061,0 Z M12.0873786,3.96440129 C12.8640777,4.96763754 13.3009709,6.21359223 13.3009709,7.49190939 C13.3009709,10.6796117 10.7119741,13.2686084 7.52427184,13.2686084 C6.24595469,13.2686084 4.98381877,12.8478964 3.98058252,12.0711974 L12.0873786,3.96440129 Z M10.8414239,2.78317152 L2.78317152,10.8252427 C2.08737864,9.85436893 1.71521036,8.67313916 1.71521036,7.49190939 C1.71521036,4.30420712 4.32038835,1.71521036 7.50809061,1.71521036 C8.68932039,1.71521036 9.87055016,2.08737864 10.8414239,2.78317152 Z" id="Shape"></path>
  </g>
</svg>
