<svg width="15px" height="16px" viewBox="0 0 15 16" version="1.1" xmlns="http://www.w3.org/2000/svg" xmlns:xlink="http://www.w3.org/1999/xlink">
    <g id="Symbols" stroke="none" stroke-width="1" fill="none" fill-rule="evenodd">
        <g class="IconCalendar" fill-rule="nonzero" fill="#CBD7DA">
            <g id="Group">
                <path d="M11.7352941,1.55555556 L11.1397059,1.55555556 L11.1397059,0.511111111 C11.1397059,0.266666667 10.9411765,0.0666666667 10.6985294,0.0666666667 C10.4558824,0.0666666667 10.2573529,0.266666667 10.2573529,0.511111111 L10.2573529,1.55555556 L4.74264706,1.55555556 L4.74264706,0.511111111 C4.74264706,0.266666667 4.54411765,0.0666666667 4.30147059,0.0666666667 C4.05882353,0.0666666667 3.86029412,0.266666667 3.86029412,0.511111111 L3.86029412,1.55555556 L3.26470588,1.55555556 C1.56617647,1.55555556 0.176470588,2.95555556 0.176470588,4.66666667 L0.176470588,12.8222222 C0.176470588,14.5333333 1.56617647,15.9333333 3.26470588,15.9333333 L11.7573529,15.9333333 C13.4558824,15.9333333 14.8455882,14.5333333 14.8455882,12.8222222 L14.8455882,4.66666667 C14.8235294,2.95555556 13.4558824,1.55555556 11.7352941,1.55555556 Z M11.7352941,15.0444444 L3.26470588,15.0444444 C2.05147059,15.0444444 1.05882353,14.0444444 1.05882353,12.8222222 L1.05882353,6.66666667 L13.9632353,6.66666667 L13.9632353,12.8222222 C13.9411765,14.0444444 12.9485294,15.0444444 11.7352941,15.0444444 Z M13.9411765,5.77777778 L1.05882353,5.77777778 L1.05882353,4.66666667 C1.05882353,3.44444444 2.05147059,2.44444444 3.26470588,2.44444444 L3.86029412,2.44444444 L3.86029412,3.48888889 C3.86029412,3.73333333 4.05882353,3.93333333 4.30147059,3.93333333 C4.54411765,3.93333333 4.74264706,3.73333333 4.74264706,3.48888889 L4.74264706,2.44444444 L10.2573529,2.44444444 L10.2573529,3.48888889 C10.2573529,3.73333333 10.4558824,3.93333333 10.6985294,3.93333333 C10.9411765,3.93333333 11.1397059,3.73333333 11.1397059,3.48888889 L11.1397059,2.44444444 L11.7352941,2.44444444 C12.9485294,2.44444444 13.9411765,3.44444444 13.9411765,4.66666667 L13.9411765,5.77777778 Z" id="Shape"></path>
                <path d="M11.2279412,11.5555556 L3.77205882,11.5555556 C3.52941176,11.5555556 3.33088235,11.7555556 3.33088235,12 C3.33088235,12.2444444 3.52941176,12.4444444 3.77205882,12.4444444 L11.2058824,12.4444444 C11.4485294,12.4444444 11.6470588,12.2444444 11.6470588,12 C11.6470588,11.7555556 11.4705882,11.5555556 11.2279412,11.5555556 Z" id="Shape"></path>
                <path d="M5.02941176,9.93333333 L9.99264706,9.93333333 C10.2352941,9.93333333 10.4338235,9.73333333 10.4338235,9.48888889 C10.4338235,9.24444444 10.2352941,9.04444444 9.99264706,9.04444444 L5.02941176,9.04444444 C4.78676471,9.04444444 4.58823529,9.24444444 4.58823529,9.48888889 C4.58823529,9.73333333 4.78676471,9.93333333 5.02941176,9.93333333 Z" id="Shape"></path>
            </g>
        </g>
    </g>
</svg>
