<svg width="15px" height="15px" viewBox="0 0 15 15" version="1.1" xmlns="http://www.w3.org/2000/svg" xmlns:xlink="http://www.w3.org/1999/xlink">
    <g id="Symbols" stroke="none" stroke-width="1" fill="none" fill-rule="evenodd">
        <g id="Dashbaord-Block-Ban-Copy" fill="#CBD7DA">
            <g id="Group" transform="translate(0.110588, 0.000000)">
                <path d="M7.38,0.874534624 C10.9494118,0.874534624 13.8917647,3.78965004 13.8917647,7.4335443 C13.8917647,11.0288533 10.9494118,13.992554 7.38,13.992554 C3.76235294,13.992554 0.868235294,11.0288533 0.868235294,7.4335443 C0.868235294,3.78965004 3.76235294,0.874534624 7.38,0.874534624 Z M7.38,1.40897245 C4.05176471,1.40897245 1.39882353,4.08116158 1.39882353,7.4335443 C1.39882353,10.7373418 4.05176471,13.4095309 7.38,13.4095309 C10.66,13.4095309 13.3129412,10.7373418 13.3129412,7.4335443 C13.3129412,4.08116158 10.66,1.40897245 7.38,1.40897245 Z" id="Shape" fill-rule="nonzero"></path>
                <path d="M7.38,1.94341028 C7.52470588,1.94341028 7.62117647,2.08916605 7.62117647,2.23492182 C7.62117647,2.38067759 7.52470588,2.4778481 7.38,2.4778481 C7.23529412,2.4778481 7.09058824,2.38067759 7.09058824,2.23492182 C7.09058824,2.08916605 7.23529412,1.94341028 7.38,1.94341028 Z M3.90705882,3.93540581 C3.81058824,4.03257632 3.61764706,4.03257632 3.52117647,3.93540581 C3.42470588,3.83823529 3.42470588,3.64389427 3.52117647,3.54672375 C3.61764706,3.44955324 3.81058824,3.44955324 3.90705882,3.54672375 C4.00352941,3.64389427 4.00352941,3.83823529 3.90705882,3.93540581 Z M11.1905882,11.2717796 C11.0941176,11.3689501 10.9011765,11.3689501 10.8047059,11.2717796 C10.7082353,11.1746091 10.7082353,10.9802681 10.8047059,10.8830975 C10.9011765,10.785927 11.0941176,10.785927 11.1905882,10.8830975 C11.2870588,10.9802681 11.2870588,11.1746091 11.1905882,11.2717796 Z M3.90705882,10.8830975 C4.00352941,10.9802681 4.00352941,11.1746091 3.90705882,11.2717796 C3.81058824,11.3689501 3.61764706,11.3689501 3.52117647,11.2717796 C3.42470588,11.1746091 3.42470588,10.9802681 3.52117647,10.8830975 C3.61764706,10.785927 3.81058824,10.785927 3.90705882,10.8830975 Z M11.1905882,3.54672375 C11.2870588,3.64389427 11.2870588,3.83823529 11.1905882,3.93540581 C11.0941176,4.03257632 10.9011765,4.03257632 10.8047059,3.93540581 C10.7082353,3.83823529 10.7082353,3.64389427 10.8047059,3.54672375 C10.9011765,3.44955324 11.0941176,3.44955324 11.1905882,3.54672375 Z M2.46,7.4335443 C2.46,7.57930007 2.36352941,7.67647059 2.21882353,7.67647059 C2.07411765,7.67647059 1.92941176,7.57930007 1.92941176,7.4335443 C1.92941176,7.28778853 2.07411765,7.14203276 2.21882353,7.14203276 C2.36352941,7.14203276 2.46,7.28778853 2.46,7.4335443 Z M12.7823529,7.4335443 C12.7823529,7.57930007 12.6376471,7.67647059 12.4929412,7.67647059 C12.3482353,7.67647059 12.2517647,7.57930007 12.2517647,7.4335443 C12.2517647,7.28778853 12.3482353,7.14203276 12.4929412,7.14203276 C12.6376471,7.14203276 12.7823529,7.28778853 12.7823529,7.4335443 Z M7.38,12.3406552 C7.52470588,12.3406552 7.62117647,12.4378258 7.62117647,12.5835815 C7.62117647,12.7293373 7.52470588,12.8750931 7.38,12.8750931 C7.23529412,12.8750931 7.09058824,12.7293373 7.09058824,12.5835815 C7.09058824,12.4378258 7.23529412,12.3406552 7.38,12.3406552 Z" id="Shape"></path>
                <path d="M4.58235294,7.19061802 L6.60823529,7.19061802 C6.70470588,6.94769173 6.89764706,6.75335071 7.13882353,6.65618019 L7.13882353,3.64389427 C7.13882353,3.30379747 7.62117647,3.30379747 7.62117647,3.64389427 L7.62117647,6.65618019 C7.91058824,6.75335071 8.15176471,7.09344751 8.15176471,7.4335443 C8.15176471,7.87081162 7.81411765,8.21090841 7.38,8.21090841 C7.04235294,8.21090841 6.70470588,7.96798213 6.60823529,7.67647059 L4.58235294,7.67647059 C4.24470588,7.67647059 4.24470588,7.19061802 4.58235294,7.19061802 Z M7.38,7.04486225 C7.13882353,7.04486225 6.99411765,7.19061802 6.99411765,7.4335443 C6.99411765,7.62788533 7.13882353,7.82222636 7.38,7.82222636 C7.57294118,7.82222636 7.76588235,7.62788533 7.76588235,7.4335443 C7.76588235,7.19061802 7.57294118,7.04486225 7.38,7.04486225 Z" id="Shape"></path>
                <path d="M2.02588235,0 L12.7341176,0 C13.2647059,0 13.7952941,0.194341028 14.1329412,0.583023083 L14.1329412,0.583023083 C14.5188235,0.971705138 14.76,1.45755771 14.76,2.04058079 L14.76,12.8265078 C14.76,13.3609456 14.5188235,13.8953835 14.1329412,14.2354803 C13.7952941,14.6241623 13.2647059,14.8670886 12.7341176,14.8670886 L2.02588235,14.8670886 C1.44705882,14.8670886 0.964705882,14.6241623 0.578823529,14.2354803 C0.192941176,13.8953835 0,13.3609456 0,12.8265078 L0,2.04058079 C0,1.45755771 0.192941176,0.971705138 0.578823529,0.583023083 L0.578823529,0.583023083 C0.964705882,0.194341028 1.44705882,0 2.02588235,0 Z M12.7341176,0.534437826 L2.02588235,0.534437826 C1.59176471,0.534437826 1.20588235,0.680193596 0.964705882,0.971705138 L0.964705882,0.971705138 C0.675294118,1.21463142 0.530588235,1.60331348 0.530588235,2.04058079 L0.530588235,12.8265078 C0.530588235,13.2151899 0.675294118,13.6038719 0.964705882,13.8467982 C1.20588235,14.1383098 1.59176471,14.2840655 2.02588235,14.2840655 L12.7341176,14.2840655 C13.12,14.2840655 13.5058824,14.1383098 13.7470588,13.8467982 C14.0364706,13.6038719 14.1811765,13.2151899 14.1811765,12.8265078 L14.1811765,2.04058079 C14.1811765,1.60331348 14.0364706,1.21463142 13.7470588,0.971705138 L13.7470588,0.971705138 C13.5058824,0.680193596 13.12,0.534437826 12.7341176,0.534437826 Z" id="Shape" fill-rule="nonzero"></path>
            </g>
        </g>
    </g>
</svg>
