<svg width="16px" height="16px" viewBox="0 0 16 16" version="1.1" xmlns="http://www.w3.org/2000/svg" xmlns:xlink="http://www.w3.org/1999/xlink">
    <g id="Symbols" stroke="none" stroke-width="1" fill="none" fill-rule="evenodd">
        <g class="IconClose" fill-rule="nonzero" fill="#CBD7DA">
            <path d="M0.394142767,15.6058572 C0.919825189,16.1313809 1.77195645,16.1313809 2.29763887,15.6058572 L8.00812717,9.89536893 L13.7186155,15.6058572 C14.2468274,16.1160214 15.0864467,16.1087253 15.6057132,15.5894589 C16.1249797,15.0701924 16.1322757,14.2305731 15.6221116,13.7023611 L9.91162327,7.99187283 L15.6221116,2.28138453 C16.1322757,1.75317259 16.1249797,0.913553262 15.6057132,0.394286797 C15.0864467,-0.124979668 14.2468274,-0.132275733 13.7186155,0.377888428 L8.00812717,6.08837673 L2.29763887,0.377888428 C1.76942693,-0.132275733 0.929807601,-0.124979668 0.410541137,0.394286797 C-0.108725328,0.913553262 -0.116021393,1.75317259 0.394142767,2.28138453 L6.10463107,7.99187283 L0.394142767,13.7023611 C-0.131380922,14.2280436 -0.131380922,15.0801748 0.394142767,15.6058572 Z" id="Shape"></path>
        </g>
    </g>
</svg>
