<svg width="15px" height="15px" viewBox="0 0 15 15" version="1.1" xmlns="http://www.w3.org/2000/svg" xmlns:xlink="http://www.w3.org/1999/xlink">
    <g id="Symbols" stroke="none" stroke-width="1" fill="none" fill-rule="evenodd">
        <g class="IconCross" fill-rule="nonzero" fill="#CBD7DA">
            <path d="M7.46619718,0 C3.34300556,0.00114051199 0.00133504995,3.26928539 0.00211280889,7.29985468 C0.00289056783,11.330424 3.34582211,14.5973363 7.46901389,14.5969562 C11.5922057,14.5965761 14.9345069,11.3290476 14.934507,7.29847826 C14.9298479,3.26872186 11.5885585,0.00341440666 7.46619718,8.11211002e-16 L7.46619718,0 Z M7.46619718,13.3598913 C4.04335991,13.3587507 1.26932977,10.6458029 1.26971871,7.29985531 C1.27010765,3.95390769 4.04476843,1.24157624 7.46760587,1.24119604 C10.8904433,1.24081584 13.6657346,3.95253081 13.6669014,7.29847826 C13.6634078,10.6446887 10.8893034,13.3564762 7.46619718,13.3598913 Z" id="Shape"></path>
            <path d="M10.8887324,3.9548913 C10.750059,3.81931916 10.5619689,3.74315437 10.3658451,3.74315437 C10.1697212,3.74315437 9.98163118,3.81931916 9.84295775,3.9548913 L7.46619718,6.27826087 L5.0915493,3.9548913 C4.8027666,3.67259576 4.33455734,3.67259576 4.04577465,3.9548913 C3.75699195,4.23718685 3.75699195,4.69487837 4.04577465,4.97717391 L6.42253521,7.29847826 L4.04577465,9.62184783 C3.75699195,9.90414337 3.75699195,10.3618349 4.04577465,10.6441304 C4.33455734,10.926426 4.8027666,10.926426 5.0915493,10.6441304 L7.46619718,8.32076087 L9.84295775,10.6441304 C10.1317404,10.926426 10.5999497,10.926426 10.8887324,10.6441304 C11.1775151,10.3618349 11.1775151,9.90414337 10.8887324,9.62184783 L8.51197183,7.29847826 L10.8887324,4.97717391 C11.02742,4.84161561 11.105335,4.65775079 11.105335,4.46603261 C11.105335,4.27431443 11.02742,4.09044961 10.8887324,3.9548913 Z" id="Shape"></path>
        </g>
    </g>
</svg>
