<svg width="16px" height="16px" viewBox="0 0 16 16" version="1.1" xmlns="http://www.w3.org/2000/svg" xmlns:xlink="http://www.w3.org/1999/xlink">
    <g id="Symbols" stroke="none" stroke-width="1" fill="none" fill-rule="evenodd">
        <g class="svg-icon IconExpand" fill="#CBD7DA">
            <path d="M3.30831392,14.0288 L6.03997975,14.0288 C6.29387342,14.0288 6.53735696,14.1309538 6.71688101,14.3127795 C6.89640506,14.4946051 6.99726582,14.7412103 6.99726582,14.998359 L6.99726582,14.9987692 C6.99726582,15.2559179 6.89640506,15.5025231 6.71688101,15.6843487 C6.53735696,15.8661744 6.29387342,15.9683282 6.03997975,15.9683282 L0.951453165,15.9683282 C0.705093671,15.9683282 0.468820253,15.8692103 0.294602532,15.692759 C0.12038481,15.5163077 0.022521519,15.2770051 0.022521519,15.0274872 L0.022521519,9.87372308 C0.022521519,9.61657436 0.123341772,9.36996923 0.302906329,9.18814359 C0.48243038,9.00631795 0.725913924,8.9041641 0.979807595,8.9041641 L0.980212658,8.9041641 C1.23410633,8.9041641 1.47758987,9.00631795 1.65711392,9.18814359 C1.83663797,9.36996923 1.93749873,9.61657436 1.93749873,9.87372308 L1.93749873,12.6404103 C1.93749873,12.6404103 4.27835949,10.2695385 5.47382278,9.05874872 C5.85223291,8.67548718 6.46578228,8.67548718 6.84419241,9.05874872 C6.84435443,9.05887179 6.84447595,9.0590359 6.84463797,9.0592 C7.2230481,9.44246154 7.2230481,10.0638769 6.84463797,10.4471385 C5.64917468,11.6579282 3.30831392,14.0288 3.30831392,14.0288 L3.30831392,14.0288 Z M12.7141671,1.95298462 L9.98254177,1.95298462 C9.7286481,1.95298462 9.48516456,1.85083077 9.30564051,1.66900513 C9.12607595,1.48717949 9.02521519,1.24053333 9.02521519,0.983384615 L9.02521519,0.983015385 C9.02521519,0.725866667 9.12607595,0.479220513 9.30564051,0.297394872 C9.48516456,0.115569231 9.7286481,0.0134153846 9.98254177,0.0134153846 L15.0710278,0.0134153846 C15.3174278,0.0134153846 15.5537013,0.112533333 15.727919,0.288984615 L15.727919,0.289025641 C15.9021367,0.465435897 16,0.704779487 16,0.954297436 L16,6.10802051 C16,6.36516923 15.8991392,6.61181538 15.7196152,6.79364103 C15.5400911,6.97546667 15.2966076,7.07762051 15.0427139,7.07762051 L15.0423089,7.07762051 C14.7884152,7.07762051 14.5449316,6.97546667 14.3654076,6.79364103 C14.1858835,6.61181538 14.0850228,6.36516923 14.0850228,6.10802051 L14.0850228,3.34137436 C14.0850228,3.34137436 11.744162,5.71224615 10.5486987,6.9230359 C10.1702886,7.30629744 9.55673924,7.30629744 9.17832911,6.9230359 C9.17816709,6.92287179 9.17800506,6.92270769 9.17788354,6.92258462 C8.79943291,6.53932308 8.79943291,5.91790769 9.17788354,5.53464615 C10.3733468,4.32385641 12.7141671,1.95298462 12.7141671,1.95298462 L12.7141671,1.95298462 Z" id="Combined-Shape"></path>
        </g>
    </g>
</svg>
