<svg width="13px" height="16px" viewBox="0 0 13 16" version="1.1" xmlns="http://www.w3.org/2000/svg" xmlns:xlink="http://www.w3.org/1999/xlink">
    <g id="Symbols" stroke="none" stroke-width="1" fill="none" fill-rule="evenodd">
        <g class="svg-icon IconRefresh" fill-rule="nonzero" fill="#CBD7DA">
            <g id="Group">
                <path d="M0,6.06222222 L0,10.6666667 C0,11.0577778 0.325,11.3777778 0.722222222,11.3777778 C1.11944444,11.3777778 1.44444444,11.0577778 1.44444444,10.6666667 L1.44444444,6.06222222 C1.44444444,4.39111111 2.83472222,3.02222222 4.53194444,3.02222222 L9.53333333,3.02222222 L9.22638889,3.32444444 C8.9375,3.60888889 8.9375,4.05333333 9.22638889,4.33777778 C9.37083333,4.48 9.55138889,4.55111111 9.73194444,4.55111111 C9.9125,4.55111111 10.0930556,4.48 10.2375,4.33777778 L11.7722222,2.82666667 C12.0611111,2.54222222 12.0611111,2.09777778 11.7722222,1.81333333 L10.2375,0.302222222 C9.94861111,0.0177777778 9.49722222,0.0177777778 9.20833333,0.302222222 C8.91944444,0.586666667 8.91944444,1.03111111 9.20833333,1.31555556 L9.51527778,1.61777778 L4.53194444,1.61777778 C2.04027778,1.6 0,3.60888889 0,6.06222222 Z" id="Shape"></path>
                <path d="M12.2777778,4.62222222 C11.8805556,4.62222222 11.5555556,4.94222222 11.5555556,5.33333333 L11.5555556,9.93777778 C11.5555556,11.6088889 10.1652778,12.9777778 8.46805556,12.9777778 L3.55694444,12.9777778 L3.86388889,12.6755556 C4.15277778,12.3911111 4.15277778,11.9466667 3.86388889,11.6622222 C3.575,11.3777778 3.12361111,11.3777778 2.83472222,11.6622222 L1.3,13.1733333 C1.01111111,13.4577778 1.01111111,13.9022222 1.3,14.1866667 L2.83472222,15.6977778 C2.97916667,15.84 3.15972222,15.9111111 3.34027778,15.9111111 C3.52083333,15.9111111 3.70138889,15.84 3.84583333,15.6977778 C4.13472222,15.4133333 4.13472222,14.9688889 3.84583333,14.6844444 L3.55694444,14.4 L8.46805556,14.4 C10.9597222,14.4 13,12.3911111 13,9.93777778 L13,5.33333333 C13,4.94222222 12.675,4.62222222 12.2777778,4.62222222 Z" id="Shape"></path>
            </g>
        </g>
    </g>
</svg>
